<?xml version="1.0" encoding="UTF-8" standalone="no"?>
<!-- Generator: Adobe Illustrator 18.0.0, SVG Export Plug-In . SVG Version: 6.00 Build 0)  -->

<svg
   xmlns:dc="http://purl.org/dc/elements/1.1/"
   xmlns:cc="http://creativecommons.org/ns#"
   xmlns:rdf="http://www.w3.org/1999/02/22-rdf-syntax-ns#"
   xmlns:svg="http://www.w3.org/2000/svg"
   xmlns="http://www.w3.org/2000/svg"
   xmlns:xlink="http://www.w3.org/1999/xlink"
   xmlns:sodipodi="http://sodipodi.sourceforge.net/DTD/sodipodi-0.dtd"
   xmlns:inkscape="http://www.inkscape.org/namespaces/inkscape"
   version="1.1"
   id="Capa_1"
   x="0px"
   y="0px"
   viewBox="0 0 500 500"
   xml:space="preserve"
   sodipodi:docname="whats-the-wp-theme-01.svg"
   inkscape:version="0.92.3 (2405546, 2018-03-11)"
   width="500"
   height="500"><metadata
   id="metadata49"><rdf:RDF><cc:Work
       rdf:about=""><dc:format>image/svg+xml</dc:format><dc:type
         rdf:resource="http://purl.org/dc/dcmitype/StillImage" /><dc:title></dc:title></cc:Work></rdf:RDF></metadata><defs
   id="defs47">
	
	
	
	
	
	
	
	
	
	
	
	
	
	
	
	
<linearGradient
   gradientUnits="userSpaceOnUse"
   y2="39.290001"
   x2="514.28003"
   y1="794.59998"
   x1="514.28003"
   id="94ea2f64-8775-4285-9535-47505d4504ba"><stop
     id="stop1525"
     stop-opacity="0.25"
     stop-color="gray"
     offset="0" /><stop
     id="stop1527"
     stop-opacity="0.12"
     stop-color="gray"
     offset="0.54" /><stop
     id="stop1529"
     stop-opacity="0.1"
     stop-color="gray"
     offset="1" /></linearGradient><linearGradient
   xlink:href="#94ea2f64-8775-4285-9535-47505d4504ba"
   y2="387.79999"
   x2="352.45999"
   y1="508.79999"
   x1="352.45999"
   id="9902b6eb-7e01-4833-b144-dc26bb7551ad" /><linearGradient
   xlink:href="#94ea2f64-8775-4285-9535-47505d4504ba"
   y2="688.29999"
   x2="403.5"
   y1="688.29999"
   x1="301.01999"
   id="21ee491e-4011-483b-8d16-525be78e50c0" /><linearGradient
   xlink:href="#94ea2f64-8775-4285-9535-47505d4504ba"
   gradientTransform="matrix(-1.2718694,0,0,1.2718694,1197.3496,-538.98669)"
   y2="325"
   x2="1051.17"
   y1="868"
   x1="1051.17"
   id="d00641ca-2725-41c0-a5bc-b0023515ebdd" /><linearGradient
   xlink:href="#94ea2f64-8775-4285-9535-47505d4504ba"
   y2="54.57"
   x2="478.51001"
   y1="568.15002"
   x1="478.51001"
   id="7d144004-1422-42e7-b57e-3cce0fe81449"
   gradientTransform="matrix(1.2718694,0,0,1.2718694,465.34161,-824.10882)" /><linearGradient
   xlink:href="#94ea2f64-8775-4285-9535-47505d4504ba"
   gradientTransform="matrix(-1.2718694,0,0,1.2718694,-2148.0193,-824.10882)"
   y2="147"
   x2="-2402.29"
   y1="267.79999"
   x1="-2402.29"
   id="b0cc273c-fa84-4dd2-9170-0bd022ed7a87" /><linearGradient
   gradientUnits="userSpaceOnUse"
   y2="185.7"
   x2="588.16998"
   y1="804.70001"
   x1="588.16998"
   id="b752362c-f89d-48d5-9dd1-266417fc8d3c"><stop
     id="stop2099"
     stop-opacity="0.25"
     stop-color="gray"
     offset="0" /><stop
     id="stop2101"
     stop-opacity="0.12"
     stop-color="gray"
     offset="0.54" /><stop
     id="stop2103"
     stop-opacity="0.1"
     stop-color="gray"
     offset="1" /></linearGradient><linearGradient
   xlink:href="#b752362c-f89d-48d5-9dd1-266417fc8d3c"
   gradientTransform="matrix(0.41464335,0,0,0.41464335,-193.67059,-755.47825)"
   y2="1173.83"
   x2="567.70001"
   y1="1179.83"
   x1="567.70001"
   id="a11e32f9-0bc0-4cef-b66b-30dd4b707f0c" /><linearGradient
   xlink:href="#b752362c-f89d-48d5-9dd1-266417fc8d3c"
   y2="483.16"
   x2="588.52002"
   y1="693.03003"
   x1="588.52002"
   id="ada07a9a-e50a-4215-9506-0eaaef22308f"
   gradientTransform="matrix(0.41464335,0,0,0.41464335,1.2419966,-29.890611)" /><linearGradient
   inkscape:collect="always"
   xlink:href="#b752362c-f89d-48d5-9dd1-266417fc8d3c"
   id="linearGradient2338"
   gradientUnits="userSpaceOnUse"
   x1="588.16998"
   y1="804.70001"
   x2="588.16998"
   y2="185.7"
   gradientTransform="matrix(0.41464335,0,0,0.41464335,1.2419966,-29.890611)" /><linearGradient
   gradientUnits="userSpaceOnUse"
   x2="452.79999"
   y1="753.72998"
   x1="452.79999"
   id="b4c3f788-9d51-49bd-96f9-c54f9fd51398"><stop
     id="stop2935"
     stop-opacity="0.25"
     stop-color="gray"
     offset="0" /><stop
     id="stop2937"
     stop-opacity="0.12"
     stop-color="gray"
     offset="0.54" /><stop
     id="stop2939"
     stop-opacity="0.1"
     stop-color="gray"
     offset="1" /></linearGradient><linearGradient
   xlink:href="#b4c3f788-9d51-49bd-96f9-c54f9fd51398"
   y2="101.61"
   x2="209.37"
   y1="339.45999"
   x1="209.37"
   id="778ed1c4-cafd-494e-8a04-dc2b91aee6fd"
   gradientTransform="translate(-2423.5785,-579.67495)" /><linearGradient
   xlink:href="#b4c3f788-9d51-49bd-96f9-c54f9fd51398"
   y2="227.8"
   x2="174.2"
   y1="227.8"
   x1="32.380001"
   id="92c6cb1b-63b4-4a00-ae9b-05b36bfadf3e"
   gradientTransform="translate(-2423.5785,-579.67495)" /><linearGradient
   xlink:href="#b4c3f788-9d51-49bd-96f9-c54f9fd51398"
   y2="582.89001"
   x2="211.60001"
   y1="606.34003"
   x1="211.60001"
   id="3111d6ac-9e05-4a73-9878-bd628330955d"
   gradientTransform="translate(-2423.5785,-579.67495)" /><linearGradient
   xlink:href="#b4c3f788-9d51-49bd-96f9-c54f9fd51398"
   y2="646.53998"
   x2="572.28003"
   y1="718"
   x1="572.28003"
   id="2e076d7a-ee6b-46b6-b939-69cbad87608e"
   gradientTransform="matrix(0.45121348,0,0,0.41464335,-127.51903,117.64242)" /><linearGradient
   xlink:href="#b4c3f788-9d51-49bd-96f9-c54f9fd51398"
   y2="91.559998"
   x2="630.34003"
   y1="245.66"
   x1="630.34003"
   id="acad6429-7160-42af-9a00-db2d81d2388a"
   gradientTransform="matrix(0.41464335,0,0,0.41464335,-7.6670719,351.94739)" /><linearGradient
   inkscape:collect="always"
   xlink:href="#b4c3f788-9d51-49bd-96f9-c54f9fd51398"
   id="linearGradient3054"
   gradientUnits="userSpaceOnUse"
   x1="452.79999"
   y1="753.72998"
   x2="452.79999"
   gradientTransform="matrix(0.41464335,0,0,0.19285964,-7.6670719,354.6359)" /></defs><sodipodi:namedview
   pagecolor="#ffffff"
   bordercolor="#666666"
   borderopacity="1"
   objecttolerance="10"
   gridtolerance="10"
   guidetolerance="10"
   inkscape:pageopacity="0"
   inkscape:pageshadow="2"
   inkscape:window-width="2560"
   inkscape:window-height="1025"
   id="namedview45"
   showgrid="false"
   inkscape:zoom="1.5676401"
   inkscape:cx="300.84696"
   inkscape:cy="250.82004"
   inkscape:window-x="0"
   inkscape:window-y="27"
   inkscape:window-maximized="1"
   inkscape:current-layer="Capa_1" />

<g
   id="g14"
   transform="translate(0,41.944)">
</g>
<g
   id="g16"
   transform="translate(0,41.944)">
</g>
<g
   id="g18"
   transform="translate(0,41.944)">
</g>
<g
   id="g20"
   transform="translate(0,41.944)">
</g>
<g
   id="g22"
   transform="translate(0,41.944)">
</g>
<g
   id="g24"
   transform="translate(0,41.944)">
</g>
<g
   id="g26"
   transform="translate(0,41.944)">
</g>
<g
   id="g28"
   transform="translate(0,41.944)">
</g>
<g
   id="g30"
   transform="translate(0,41.944)">
</g>
<g
   id="g32"
   transform="translate(0,41.944)">
</g>
<g
   id="g34"
   transform="translate(0,41.944)">
</g>
<g
   id="g36"
   transform="translate(0,41.944)">
</g>
<g
   id="g38"
   transform="translate(0,41.944)">
</g>
<g
   id="g40"
   transform="translate(0,41.944)">
</g>
<g
   id="g42"
   transform="translate(0,41.944)">
</g>
<g
   id="g987"
   transform="translate(-552.56727,-44.8036)">
	</g><g
   id="g989"
   transform="translate(-552.56727,-44.8036)">
	</g><g
   id="g991"
   transform="translate(-552.56727,-44.8036)">
	</g><g
   id="g993"
   transform="translate(-552.56727,-44.8036)">
	</g><g
   id="g995"
   transform="translate(-552.56727,-44.8036)">
	</g><g
   id="g997"
   transform="translate(-552.56727,-44.8036)">
	</g><g
   id="g999"
   transform="translate(-552.56727,-44.8036)">
	</g><g
   id="g1001"
   transform="translate(-552.56727,-44.8036)">
	</g><g
   id="g1003"
   transform="translate(-552.56727,-44.8036)">
	</g><g
   id="g1005"
   transform="translate(-552.56727,-44.8036)">
	</g><g
   id="g1007"
   transform="translate(-552.56727,-44.8036)">
	</g><g
   id="g1009"
   transform="translate(-552.56727,-44.8036)">
	</g><g
   id="g1011"
   transform="translate(-552.56727,-44.8036)">
	</g><g
   id="g1013"
   transform="translate(-552.56727,-44.8036)">
	</g><g
   id="g1015"
   transform="translate(-552.56727,-44.8036)">
	</g><g
   id="g1019"
   transform="translate(-552.56727,-44.8036)">
</g><g
   id="g1021"
   transform="translate(-552.56727,-44.8036)">
</g><g
   id="g1023"
   transform="translate(-552.56727,-44.8036)">
</g><g
   id="g1025"
   transform="translate(-552.56727,-44.8036)">
</g><g
   id="g1027"
   transform="translate(-552.56727,-44.8036)">
</g><g
   id="g1029"
   transform="translate(-552.56727,-44.8036)">
</g><g
   id="g1031"
   transform="translate(-552.56727,-44.8036)">
</g><g
   id="g1033"
   transform="translate(-552.56727,-44.8036)">
</g><g
   id="g1035"
   transform="translate(-552.56727,-44.8036)">
</g><g
   id="g1037"
   transform="translate(-552.56727,-44.8036)">
</g><g
   id="g1039"
   transform="translate(-552.56727,-44.8036)">
</g><g
   id="g1041"
   transform="translate(-552.56727,-44.8036)">
</g><g
   id="g1043"
   transform="translate(-552.56727,-44.8036)">
</g><g
   id="g1045"
   transform="translate(-552.56727,-44.8036)">
</g><g
   id="g1047"
   transform="translate(-552.56727,-44.8036)">
</g><ellipse
   style="opacity:0.1;fill:#cccccc;stroke-width:0.62751031"
   cx="235.388"
   cy="306.32956"
   rx="224.32205"
   ry="29.439384"
   id="ellipse2112" /><g
   style="opacity:0.2;fill:#e6e6e6"
   id="g2128"
   transform="matrix(0.41464335,0,0,0.41464335,7.9758046,-0.04043635)"><path
     style="fill:#e6e6e6"
     inkscape:connector-curvature="0"
     d="m 1023.5,798.41 a 17.73,17.73 0 0 1 -1.73,2.67 q -8.64,-6.09 -17.57,-11.93 c 0.12,-0.25 0.25,-0.51 0.39,-0.76 a 16.84,16.84 0 0 1 6,-6.52 c 3.29,-2 7,-2.48 10,-0.86 3,1.62 4.76,4.94 4.94,8.78 a 16.84,16.84 0 0 1 -2.03,8.62 z"
     transform="translate(-16.24,-71.99)"
     id="path2114" /><ellipse
     style="fill:#e6e6e6"
     cx="1022.06"
     cy="778.26001"
     rx="14.01"
     ry="10.7"
     transform="rotate(-62.09,954.22764,755.76669)"
     id="ellipse2116" /><ellipse
     style="fill:#e6e6e6"
     cx="1030.0699"
     cy="763.12"
     rx="14.01"
     ry="10.7"
     transform="rotate(-62.09,962.24189,740.62883)"
     id="ellipse2118" /><ellipse
     style="fill:#e6e6e6"
     cx="1038.09"
     cy="747.98999"
     rx="14.01"
     ry="10.7"
     transform="rotate(-62.09,970.25615,725.49096)"
     id="ellipse2120" /><ellipse
     style="fill:#e6e6e6"
     cx="1046.11"
     cy="732.84998"
     rx="14.01"
     ry="10.7"
     transform="rotate(-62.09,978.27041,710.3531)"
     id="ellipse2122" /><path
     style="fill:#e6e6e6"
     inkscape:connector-curvature="0"
     d="m 1065.55,610.51 a 51.89,51.89 0 0 1 -0.78,-7 l 27,9.08 -27,-14 A 51.4,51.4 0 0 1 1083,562.14 l 26.11,37.86 -20.31,-42.07 a 51.28,51.28 0 1 1 48,90.35 51.19,51.19 0 0 1 0.8,11 l -41.15,-0.32 40.52,6.67 a 51.33,51.33 0 0 1 -29.84,38.68 51.28,51.28 0 1 1 -71.23,-37.72 51.29,51.29 0 0 1 29.67,-56 z"
     transform="translate(-16.24,-71.99)"
     id="path2124" /><path
     style="opacity:0.1;fill:#e6e6e6"
     inkscape:connector-curvature="0"
     d="m 1131.64,681.39 a 51,51 0 0 1 -24.53,22.88 51.28,51.28 0 1 1 -71.23,-37.72 c -1.99,-10.93 98.46,9.76 95.76,14.84 z"
     transform="translate(-16.24,-71.99)"
     id="path2126" /></g><g
   style="opacity:0.2;fill:#e6e6e6"
   id="g2144"
   transform="matrix(0.41464335,0,0,0.41464335,7.9758046,-0.04043635)"><path
     style="fill:#e6e6e6"
     inkscape:connector-curvature="0"
     d="m 991.37,495.94 a 31.64,31.64 0 0 1 -2.25,4.64 q -15.11,-8.06 -30.61,-15.66 c 0.14,-0.43 0.3,-0.88 0.47,-1.31 a 27.2,27.2 0 0 1 8.3,-11.66 c 4.87,-3.9 10.74,-5.37 16,-3.38 5.26,1.99 8.62,7 9.67,13.11 a 27.21,27.21 0 0 1 -1.58,14.26 z"
     transform="translate(-16.24,-71.99)"
     id="path2130" /><ellipse
     style="fill:#e6e6e6"
     cx="985.03003"
     cy="463.85001"
     rx="22.690001"
     ry="17.33"
     transform="rotate(-69.16,924.73764,439.63547)"
     id="ellipse2132" /><ellipse
     style="fill:#e6e6e6"
     cx="994.89001"
     cy="437.94"
     rx="22.690001"
     ry="17.33"
     transform="rotate(-69.16,934.60215,413.71479)"
     id="ellipse2134" /><ellipse
     style="fill:#e6e6e6"
     cx="1004.76"
     cy="412.01999"
     rx="22.690001"
     ry="17.33"
     transform="rotate(-69.16,944.46166,387.80137)"
     id="ellipse2136" /><ellipse
     style="fill:#e6e6e6"
     cx="1014.62"
     cy="386.10999"
     rx="22.690001"
     ry="17.33"
     transform="rotate(-69.16,954.33343,361.88569)"
     id="ellipse2138" /><path
     style="fill:#e6e6e6"
     inkscape:connector-curvature="0"
     d="m 1021.49,185.69 a 83.36,83.36 0 0 1 -2.65,-11.18 l 45.22,9.21 -46.16,-17.18 a 83.11,83.11 0 0 1 21.91,-62 l 49.56,55.46 -41,-63.53 a 83,83 0 1 1 95.09,135.6 83.42,83.42 0 0 1 3.46,17.51 l -66.17,7.68 66.43,2.65 a 83.07,83.07 0 0 1 -40.25,68.09 83,83 0 1 1 -122,-46.42 83,83 0 0 1 36.52,-95.93 z"
     transform="translate(-16.24,-71.99)"
     id="path2140" /><path
     style="opacity:0.1;fill:#e6e6e6"
     inkscape:connector-curvature="0"
     d="m 1141.79,286.39 a 82.59,82.59 0 0 1 -34.86,41.61 83,83 0 1 1 -122,-46.42 c -5.33,-17.12 160.18,-3.89 156.86,4.81 z"
     transform="translate(-16.24,-71.99)"
     id="path2142" /></g><g
   style="opacity:0.2;fill:#e6e6e6"
   id="g2160"
   transform="matrix(0.41464335,0,0,0.41464335,7.9758046,-0.04043635)"><path
     style="fill:#e6e6e6"
     inkscape:connector-curvature="0"
     d="m 194.62,582.15 a 37.29,37.29 0 0 0 2,5.8 q 19,-7.28 38.43,-14 c -0.11,-0.53 -0.22,-1.08 -0.36,-1.62 a 32.41,32.41 0 0 0 -8.07,-15 c -5.18,-5.32 -11.89,-7.92 -18.34,-6.34 -6.45,1.58 -11.2,7 -13.35,14 a 32.49,32.49 0 0 0 -0.31,17.16 z"
     transform="translate(-16.24,-71.99)"
     id="path2146" /><ellipse
     style="fill:#e6e6e6"
     cx="206.83"
     cy="545.21997"
     rx="20.610001"
     ry="26.98"
     transform="rotate(-13.72,-100.56016,576.53357)"
     id="ellipse2148" /><ellipse
     style="fill:#e6e6e6"
     cx="199.00999"
     cy="513.19"
     rx="20.610001"
     ry="26.98"
     transform="rotate(-13.72,-108.34601,544.52309)"
     id="ellipse2150" /><ellipse
     style="fill:#e6e6e6"
     cx="191.2"
     cy="481.16"
     rx="20.610001"
     ry="26.98"
     transform="rotate(-13.72,-116.17341,512.50761)"
     id="ellipse2152" /><ellipse
     style="fill:#e6e6e6"
     cx="183.38"
     cy="449.12"
     rx="20.610001"
     ry="26.98"
     transform="rotate(-13.72,-124.00082,480.49213)"
     id="ellipse2154" /><path
     style="fill:#e6e6e6"
     inkscape:connector-curvature="0"
     d="m 204.82,211.62 a 97.86,97.86 0 0 0 4.78,-12.8 l -54.71,4.18 57,-13.46 a 98.81,98.81 0 0 0 -16.71,-76.43 l -66.68,58.24 57.77,-68.92 a 98.72,98.72 0 1 0 -132.2,146 99.32,99.32 0 0 0 -6.67,20.16 l 76.95,18.81 -78.78,-6.67 A 98.81,98.81 0 0 0 83,367 a 98.71,98.71 0 1 0 150.76,-36.8 98.71,98.71 0 0 0 -29,-118.58 z"
     transform="translate(-16.24,-71.99)"
     id="path2156" /><path
     style="opacity:0.1;fill:#e6e6e6"
     inkscape:connector-curvature="0"
     d="M 48,312.71 A 98.29,98.29 0 0 0 83,367 98.71,98.71 0 1 0 233.76,330.2 C 242.64,310.75 45.39,302 48,312.71 Z"
     transform="translate(-16.24,-71.99)"
     id="path2158" /></g><path
   style="fill:url(#linearGradient2338);stroke-width:0.41464335"
   inkscape:connector-curvature="0"
   d="M 445.96358,47.108659 H 44.281976 a 3.5825185,3.5825185 0 0 0 -3.578372,3.590812 V 296.53322 a 7.2272336,7.2272336 0 0 0 7.214795,7.23967 H 442.32715 a 7.2272336,7.2272336 0 0 0 7.2148,-7.23967 V 50.699471 a 3.586665,3.586665 0 0 0 -3.57837,-3.590812 z"
   id="path2162" /><path
   style="fill:#ffffff;stroke-width:0.41464335"
   inkscape:connector-curvature="0"
   d="M 447.91655,62.371681 V 295.08611 a 7.1567442,7.1567442 0 0 1 -7.1526,7.1526 H 49.552093 a 7.1567442,7.1567442 0 0 1 -7.156744,-7.15674 V 62.371681 Z"
   id="path2164" /><path
   style="fill:#ededf4;stroke-width:0.41464335"
   inkscape:connector-curvature="0"
   d="M 447.91655,52.030476 V 62.371681 H 42.395349 V 52.030476 a 3.5493471,3.5493471 0 0 1 3.549347,-3.549347 H 444.3672 a 3.5493471,3.5493471 0 0 1 3.54935,3.549347 z"
   id="path2166" /><circle
   style="opacity:0.8;fill:#fa5959;stroke-width:0.41464335"
   cx="48.822323"
   cy="55.322746"
   r="1.6585734"
   id="circle2168" /><circle
   style="opacity:0.8;fill:#fed253;stroke-width:0.41464335"
   cx="53.3834"
   cy="55.322746"
   r="1.6585734"
   id="circle2170" /><circle
   style="opacity:0.8;fill:#8ccf4d;stroke-width:0.41464335"
   cx="57.944477"
   cy="55.322746"
   r="1.6585734"
   id="circle2172" /><rect
   style="fill:url(#a11e32f9-0bc0-4cef-b66b-30dd4b707f0c);stroke-width:0.41464335"
   x="40.893147"
   y="-268.75745"
   width="1.6585734"
   height="2.4878602"
   transform="rotate(90)"
   id="rect2174" /><rect
   style="fill:#ededf4;stroke-width:0.41464335"
   x="135.65692"
   y="82.76799"
   width="38.976475"
   height="4.1464334"
   id="rect2176" /><rect
   style="fill:#ededf4;stroke-width:0.41464335"
   x="135.65692"
   y="94.792648"
   width="218.93169"
   height="4.1464334"
   id="rect2178" /><rect
   style="fill:#ededf4;stroke-width:0.41464335"
   x="135.65692"
   y="106.8173"
   width="218.93169"
   height="4.1464334"
   id="rect2180" /><rect
   style="fill:#ededf4;stroke-width:0.41464335"
   x="135.65692"
   y="118.84196"
   width="218.93169"
   height="4.1464334"
   id="rect2182" /><rect
   style="fill:#ededf4;stroke-width:0.41464335"
   x="135.65692"
   y="130.86661"
   width="218.93169"
   height="4.1464334"
   id="rect2184" /><rect
   style="fill:#ededf4;stroke-width:0.41464335"
   x="177.46542"
   y="153.80469"
   width="135.17374"
   height="104.49013"
   id="rect2186" /><path
   style="fill:url(#ada07a9a-e50a-4215-9506-0eaaef22308f);stroke-width:0.41464335"
   inkscape:connector-curvature="0"
   d="m 268.76989,186.17589 c -0.17415,0 -0.3483,0.0249 -0.5266,0.029 a 2.3137099,2.3137099 0 0 0 0.058,-0.73807 7.0489369,7.0489369 0 0 0 -0.82929,-2.98958 12.978337,12.978337 0 0 0 -1.02831,-1.55906 c -1.12783,-1.55905 -2.17273,-3.15128 -3.41252,-4.62327 a 7.4345553,7.4345553 0 0 1 -1.31442,-1.93638 9.4663077,9.4663077 0 0 0 -0.44781,-1.12369 2.4173707,2.4173707 0 0 0 -2.25981,-1.0988 3.586665,3.586665 0 0 0 -2.28883,1.21076 c -0.3483,0.37318 -0.6344,0.94953 -0.34415,1.37247 0.29025,0.42293 0.9205,0.47684 0.95782,0.94124 0,0.24878 0,0.65513 -0.25293,0.73392 a 4.5071732,4.5071732 0 0 0 -1.26881,0.55562 1.4968625,1.4968625 0 0 0 -0.66757,1.161 c 0.71733,0.10781 1.31856,-0.49343 1.96955,-0.82929 a 3.6364222,3.6364222 0 0 1 2.60396,-0.0954 2.4381029,2.4381029 0 0 1 0.89563,0.45197 3.1554359,3.1554359 0 0 1 0.5805,0.77953 8.321892,8.321892 0 0 1 1.43467,3.88935 l 0.36488,2.3303 a 15.130336,15.130336 0 0 0 -1.60881,0.21561 10.104858,10.104858 0 0 1 -4.28327,-0.29025 c -1.45125,-0.41464 -2.9025,-1.16929 -4.39936,-0.82929 -0.70075,0.15342 -1.3393,0.54319 -2.04834,0.65514 a 5.6101245,5.6101245 0 0 1 -1.65858,-0.0871 l -1.14026,-0.18244 c -0.0373,-0.0954 -0.0663,-0.19488 -0.0954,-0.2944 a 8.5997031,8.5997031 0 0 1 -0.32342,-2.55835 4.5610768,4.5610768 0 0 0 3.89764,-6.46428 3.8686225,3.8686225 0 0 0 1.47199,-1.4637 l -0.29025,-0.0539 0.27366,-0.41464 a 0.48927915,0.48927915 0 0 1 -0.0788,-0.77539 1.5632054,1.5632054 0 0 0 -0.78368,-0.17415 c 0.0871,-0.16171 -0.0539,-0.36074 -0.2239,-0.41464 a 1.9488237,1.9488237 0 0 0 -0.53904,-0.0332 2.6412781,2.6412781 0 0 1 -0.77124,-0.1783 c -1.77052,-0.60952 -3.69032,-1.14441 -5.49402,-0.6344 a 6.8706403,6.8706403 0 0 0 -2.19346,1.15271 2.8651855,2.8651855 0 0 0 -1.1693,3.76081 9.7358259,9.7358259 0 0 1 0.58465,2.11054 6.7006365,6.7006365 0 0 1 -0.22806,2.00272 8.1643276,8.1643276 0 0 0 1.20662,0.26952 6.8416153,6.8416153 0 0 1 -1.19832,2.45469 9.7524116,9.7524116 0 0 1 -0.82929,0.91636 h -0.0498 a 20.14752,20.14752 0 0 1 -2.48786,0.30684 c -0.87904,0 -1.7415,-0.33172 -2.6164,-0.26952 a 7.0945477,7.0945477 0 0 0 -1.52174,0.34415 23.315396,23.315396 0 0 1 -7.01162,0.9371 l -0.2861,0.029 0.26537,-1.69174 a 8.321892,8.321892 0 0 1 1.43467,-3.88936 3.1554359,3.1554359 0 0 1 0.5805,-0.77953 2.4546886,2.4546886 0 0 1 0.89977,-0.45196 3.6239829,3.6239829 0 0 1 2.59982,0.0954 c 0.65099,0.31928 1.24393,0.92051 1.9737,0.82929 a 1.5093018,1.5093018 0 0 0 -0.67172,-1.161 4.5071732,4.5071732 0 0 0 -1.26881,-0.55563 c -0.24049,-0.0788 -0.27367,-0.48513 -0.25293,-0.73391 0.0373,-0.4644 0.6966,-0.56392 0.95782,-0.94539 0.26123,-0.38147 0,-0.99515 -0.34415,-1.37247 a 3.5908114,3.5908114 0 0 0 -2.28883,-1.20661 2.4090779,2.4090779 0 0 0 -2.25566,1.0988 8.8277569,8.8277569 0 0 0 -0.45196,1.12369 7.4345553,7.4345553 0 0 1 -1.31442,1.93638 c -1.24393,1.47198 -2.28469,3.06421 -3.41252,4.62327 a 13.81177,13.81177 0 0 0 -1.02831,1.55492 7.1484514,7.1484514 0 0 0 -0.82929,2.99372 2.3385885,2.3385885 0 0 0 0.058,0.74221 0.47683985,0.47683985 0 0 0 -0.0456,0.18659 0.86245817,0.86245817 0 0 0 0.32342,0.5805 c 0.63441,0.63855 1.30198,1.29784 2.15615,1.5715 a 13.243709,13.243709 0 0 0 1.61296,0.27781 c 1.31027,0.23635 2.51688,0.99515 3.84789,0.991 0.91636,0 1.82028,-0.36489 2.72421,-0.23635 1.24393,0.17001 2.13956,1.18174 2.9025,2.16444 a 7.4635803,7.4635803 0 0 1 1.43052,2.6164 c 0.2944,1.15686 0.11195,2.45884 0.72977,3.47886 a 2.3676135,2.3676135 0 0 1 0.35659,0.68831 2.305417,2.305417 0 0 1 -0.25293,1.12783 c -0.52245,1.60467 0.62197,3.31714 0.50172,4.97572 -0.0581,0.80855 -0.41464,1.57149 -0.45196,2.38005 -0.0622,1.04075 0.36074,2.2059 -0.21976,3.07251 0.35245,-0.18245 0.70904,-0.34416 1.07392,-0.48928 -1.7415,5.10426 -3.31714,10.36608 -3.1969,15.73157 0.0912,3.47885 0.82929,7.31016 -1.16929,10.16705 a 4.0137476,4.0137476 0 0 0 -0.66758,1.14027 c -0.15756,0.55977 0,1.15271 0.10367,1.72492 0.36903,2.48786 -0.97442,4.9384 -1.06564,7.46358 a 15.047407,15.047407 0 0 0 0.14927,2.32615 l 0.48928,4.20448 a 3.0517751,3.0517751 0 0 0 -1.33515,0.66343 c -0.51416,0.41464 -0.96612,1.09466 -0.72562,1.71662 0.19488,0.50172 0.76709,0.74221 1.29368,0.86661 a 3.242511,3.242511 0 0 1 1.50101,0.56806 5.7552497,5.7552497 0 0 0 0.45196,0.44781 1.6585734,1.6585734 0 0 0 1.00344,0.18659 c 0.6344,-0.0249 1.24393,-0.0788 1.89077,-0.16585 a 0.75050446,0.75050446 0 0 0 0.37733,-0.12025 0.8292867,0.8292867 0 0 0 0.21147,-0.62197 8.2389634,8.2389634 0 0 0 -0.0788,-1.89077 c -0.0249,-0.12025 -0.058,-0.23635 -0.0912,-0.35659 a 7.3599195,7.3599195 0 0 0 0.46026,-1.65858 c 0.12854,-0.82928 0.14927,-1.69589 0.20317,-2.54591 0.1244,-2.16444 0.41465,-4.31229 0.74636,-6.46014 l 0.41464,-2.76152 c 0.12854,-0.90807 0.26123,-1.81614 0.41465,-2.72421 a 85.673609,85.673609 0 0 1 3.57422,-14.47105 c 0.35245,-1.00759 0.95368,-2.18932 2.01932,-2.21835 l 0.6344,1.24393 c 0.82929,1.55906 1.33515,3.28813 1.96541,4.92597 0.82929,2.152 0.54733,4.66473 1.65857,6.68819 0.18245,0.33586 0.41465,0.65514 0.55148,1.00759 a 5.8050069,5.8050069 0 0 1 0.34001,1.6876 l 0.73392,7.46358 c 0.33171,3.35446 0.6883,6.80015 2.19346,9.8146 a 3.7815474,3.7815474 0 0 0 0.33171,0.55563 9.6404579,9.6404579 0 0 0 -0.0207,1.5093 0.59293999,0.59293999 0 0 0 0.58879,0.74221 c 0.62612,0.0829 1.24393,0.13683 1.88663,0.16171 a 1.6585734,1.6585734 0 0 0 1.00344,-0.18659 4.6440055,4.6440055 0 0 0 0.45611,-0.44781 3.2259253,3.2259253 0 0 1 1.49686,-0.56807 c 0.5266,-0.12024 1.0988,-0.36074 1.29369,-0.8666 0.24464,-0.62196 -0.21147,-1.29783 -0.72563,-1.71662 a 2.9025035,2.9025035 0 0 0 -1.47613,-0.68416 2.4546886,2.4546886 0 0 1 -0.67172,-0.0539 3.3171468,3.3171468 0 0 0 0.0498,-0.82929 4.1464335,4.1464335 0 0 1 -0.0415,-0.98685 5.8589105,5.8589105 0 0 1 0.34001,-0.97026 c 0.47684,-1.46784 -0.53904,-2.96056 -0.89563,-4.46156 -0.47684,-1.99859 0.2322,-4.09253 0.10366,-6.14502 -0.19903,-3.22178 -2.4464,-6.24453 -1.84931,-9.41655 0.47684,-2.53762 0.0705,-5.14572 -0.38147,-7.68749 l -1.65858,-9.45801 a 10.482184,10.482184 0 0 0 -0.60123,-2.24322 5.2867027,5.2867027 0 0 0 0.90392,-0.2405 c 0.41465,-1.01173 0.34416,-2.12712 0.21977,-3.21348 -0.1244,-1.08637 -0.41465,-2.14785 -0.55977,-3.22593 a 21.267057,21.267057 0 0 1 -0.21562,-2.6164 10.54438,10.54438 0 0 1 0.18245,-2.57908 12.406129,12.406129 0 0 1 0.77538,-2.16858 38.507928,38.507928 0 0 1 2.9025,-5.80501 c 1.70419,-0.13269 3.35447,-0.27781 5.0545,-0.41464 a 7.0199119,7.0199119 0 0 0 1.21076,-0.16171 15.312779,15.312779 0 0 1 1.54662,-0.44367 2.0732168,2.0732168 0 0 0 0.57221,-0.11196 c 0.37318,-0.17 0.60123,-0.64684 1.01173,-0.66343 a 1.7580878,1.7580878 0 0 0 0.4644,0 c 0.18244,-0.0581 0.27367,-0.25707 0.41464,-0.41464 0.25708,-0.2861 0.67587,-0.34415 1.01173,-0.53074 a 1.4678375,1.4678375 0 0 0 0.55563,-1.79541 z"
   id="path2188" /><circle
   style="fill:#a1616a;stroke-width:0.41464335"
   cx="247.20013"
   cy="177.07861"
   r="4.5610766"
   id="circle2190" /><path
   style="fill:#a1616a;stroke-width:0.41464335"
   inkscape:connector-curvature="0"
   d="m 241.93417,182.75508 a 11.365374,11.365374 0 0 1 -1.55491,1.5715 12.352225,12.352225 0 0 0 8.91483,1.46784 c -0.11196,-0.31098 -0.51831,-0.35659 -0.80441,-0.51416 a 1.7373556,1.7373556 0 0 1 -0.70489,-1.11124 8.6826317,8.6826317 0 0 1 -0.26538,-3.36276 2.0732168,2.0732168 0 0 0 0,-0.82929 1.77882,1.77882 0 0 0 -0.85831,-0.94538 8.4628708,8.4628708 0 0 0 -2.07321,-0.93295 c -0.75466,-0.22391 -1.18588,-0.32757 -1.21491,0.55148 a 6.9867404,6.9867404 0 0 1 -1.43881,4.10496 z"
   id="path2192" /><path
   style="fill:#a1616a;stroke-width:0.41464335"
   inkscape:connector-curvature="0"
   d="m 263.09756,185.62442 -0.4644,-2.94397 a 10.942438,10.942438 0 0 0 -0.36903,-1.7498 11.282446,11.282446 0 0 0 -1.06149,-2.12297 3.1347037,3.1347037 0 0 0 -0.5805,-0.77538 2.4381029,2.4381029 0 0 0 -0.89563,-0.45196 3.6115436,3.6115436 0 0 0 -2.59566,0.0995 c -0.65099,0.31513 -1.24393,0.91222 -1.96956,0.80855 a 1.4844232,1.4844232 0 0 1 0.67172,-1.15685 4.3827802,4.3827802 0 0 1 1.24393,-0.55562 c 0.23635,-0.0746 0.27367,-0.48099 0.25294,-0.72977 -0.0373,-0.46026 -0.6966,-0.55977 -0.95783,-0.9371 -0.26123,-0.37732 0,-0.991 0.34001,-1.36832 a 3.5700792,3.5700792 0 0 1 2.28468,-1.19832 2.3966386,2.3966386 0 0 1 2.25566,1.09051 8.7738533,8.7738533 0 0 1 0.45196,1.11954 7.4635803,7.4635803 0 0 0 1.31028,1.92809 c 1.24393,1.46369 2.28468,3.04763 3.40836,4.59839 a 14.350806,14.350806 0 0 1 1.02832,1.55077 7.011619,7.011619 0 0 1 0.82929,2.97714 1.8534558,1.8534558 0 0 1 -0.13684,0.94124 1.4595446,1.4595446 0 0 1 -1.24393,0.71319 4.4076588,4.4076588 0 0 1 -1.48857,-0.29855 l -1.80784,-0.60952 a 1.1775871,1.1775871 0 0 1 -0.5805,-0.31928 0.45610769,0.45610769 0 0 1 0.0746,-0.60952 z"
   id="path2194" /><path
   style="fill:#a1616a;stroke-width:0.41464335"
   inkscape:connector-curvature="0"
   d="m 226.9614,186.27541 0.46025,-2.94397 a 11.423424,11.423424 0 0 1 0.37318,-1.7498 11.037806,11.037806 0 0 1 1.06149,-2.12297 2.9315285,2.9315285 0 0 1 0.57635,-0.77124 2.3468814,2.3468814 0 0 1 0.89563,-0.45196 3.6239829,3.6239829 0 0 1 2.59981,0.0954 c 0.65099,0.31513 1.24393,0.91222 1.96956,0.80855 a 1.4927161,1.4927161 0 0 0 -0.67172,-1.15685 4.4325374,4.4325374 0 0 0 -1.24393,-0.55562 c -0.23635,-0.0746 -0.27367,-0.48099 -0.25293,-0.72977 0.0373,-0.46026 0.69245,-0.55977 0.95782,-0.9371 0.26537,-0.37732 0,-0.991 -0.34415,-1.36418 a 3.5659328,3.5659328 0 0 0 -2.28469,-1.20246 2.400785,2.400785 0 0 0 -2.25566,1.09051 8.7531211,8.7531211 0 0 0 -0.44781,1.11954 7.5506554,7.5506554 0 0 1 -1.31027,1.92809 c -1.24393,1.46369 -2.28469,3.04763 -3.41252,4.59839 a 14.097874,14.097874 0 0 0 -1.02417,1.55077 7.077962,7.077962 0 0 0 -0.82928,2.97714 1.8783344,1.8783344 0 0 0 0.14097,0.94539 1.463691,1.463691 0 0 0 1.26467,0.70904 4.2874122,4.2874122 0 0 0 1.48442,-0.29855 l 1.81199,-0.59294 a 1.1485621,1.1485621 0 0 0 0.57636,-0.31927 0.45610769,0.45610769 0 0 0 -0.0954,-0.62611 z"
   id="path2196" /><path
   style="fill:#3f3d56;stroke-width:0.41464335"
   inkscape:connector-curvature="0"
   d="m 259.80115,253.4808 c 0.51416,0.41464 0.96612,1.09051 0.72563,1.70833 -0.19903,0.50172 -0.76709,0.73807 -1.29369,0.86246 a 3.2673896,3.2673896 0 0 0 -1.49686,0.56391 4.5610768,4.5610768 0 0 1 -0.45196,0.42709 1.6295484,1.6295484 0 0 1 -1.00344,0.18659 c -0.63026,-0.0249 -1.24393,-0.0788 -1.88663,-0.16171 a 0.75050446,0.75050446 0 0 1 -0.37732,-0.12025 0.80026167,0.80026167 0 0 1 -0.20733,-0.61782 7.9321273,7.9321273 0 0 1 0.0746,-1.88248 2.6951818,2.6951818 0 0 1 0.90807,-1.60467 c 0.48098,-0.37318 1.94053,-1.48028 2.48786,-0.77124 0.14512,0.19074 0.0871,0.45196 0.29025,0.60953 0.20317,0.15756 0.52245,0.0705 0.75465,0.0995 a 2.9025035,2.9025035 0 0 1 1.47613,0.70075 z"
   id="path2198" /><path
   style="fill:#3f3d56;stroke-width:0.41464335"
   inkscape:connector-curvature="0"
   d="m 231.7837,253.69642 c -0.51416,0.41464 -0.96612,1.09051 -0.72563,1.70833 0.19489,0.50171 0.76295,0.74221 1.28954,0.86245 a 3.2508039,3.2508039 0 0 1 1.49687,0.56392 4.6440055,4.6440055 0 0 0 0.4561,0.44781 1.6585734,1.6585734 0 0 0 0.99929,0.18659 c 0.63026,-0.0249 1.24393,-0.0788 1.88663,-0.16585 a 0.73806516,0.73806516 0 0 0 0.37733,-0.12025 0.80026167,0.80026167 0 0 0 0.21147,-0.61782 8.1228632,8.1228632 0 0 0 -0.0788,-1.87833 2.6744496,2.6744496 0 0 0 -0.90807,-1.60882 c -0.47684,-0.37318 -1.93638,-1.48028 -2.48786,-0.77124 -0.14512,0.19074 -0.0871,0.45611 -0.29439,0.60953 -0.20732,0.15342 -0.51831,0.0705 -0.75465,0.0995 a 2.9273821,2.9273821 0 0 0 -1.46784,0.68417 z"
   id="path2200" /><path
   style="fill:#3f3d56;stroke-width:0.41464335"
   inkscape:connector-curvature="0"
   d="m 238.83264,209.45397 c -1.87005,5.39036 -3.68618,10.96732 -3.5452,16.68525 0.0912,3.46227 0.82928,7.27699 -1.16515,10.1173 a 3.9556976,3.9556976 0 0 0 -0.66758,1.13612 c -0.15756,0.55562 0,1.14441 0.0995,1.71662 0.37318,2.48786 -0.96612,4.91767 -1.06149,7.43041 a 14.927161,14.927161 0 0 0 0.14927,2.31371 l 0.51831,4.42839 c 0.17415,1.5176 2.13126,2.13956 3.64056,2.35103 a 5.643296,5.643296 0 0 0 1.28125,-2.98129 c 0.12854,-0.82928 0.14927,-1.68759 0.19903,-2.52932 0.12854,-2.15615 0.43952,-4.29571 0.74636,-6.43112 l 0.41464,-2.74908 c 0.13269,-0.90393 0.26123,-1.80785 0.41465,-2.71177 a 85.275551,85.275551 0 0 1 3.57837,-14.3591 c 0.35244,-1.00758 0.95368,-2.18102 2.01516,-2.21005 l 0.63441,1.21905 c 0.82929,1.54662 1.331,3.27154 1.96126,4.90109 0.82929,2.1437 0.54318,4.63986 1.65857,6.65917 0.18245,0.33171 0.41465,0.65099 0.54733,0.99929 a 5.7635426,5.7635426 0 0 1 0.34001,1.65857 l 0.73392,7.41383 c 0.33171,3.33787 0.68416,6.76697 2.18932,9.76485 a 2.2680991,2.2680991 0 0 0 0.69245,0.91221 c 0.61367,0.41464 1.47199,0.20318 2.07322,-0.22805 a 3.5369078,3.5369078 0 0 0 1.43466,-3.06007 4.5901019,4.5901019 0 0 1 -0.0415,-0.98271 6.5347792,6.5347792 0 0 1 0.34001,-0.96611 c 0.48098,-1.45955 -0.53489,-2.94397 -0.89563,-4.43669 -0.47684,-1.99029 0.2322,-4.0718 0.10781,-6.11599 -0.19903,-3.20934 -2.44225,-6.21965 -1.84931,-9.37508 0.47684,-2.52518 0.0705,-5.12085 -0.37733,-7.65017 l -1.67931,-9.41241 c -0.26537,-1.48442 -0.66342,-3.15958 -1.98614,-3.88521 A 4.9342559,4.9342559 0 0 0 248.9167,208.662 c -3.4291,0 -6.70478,0.47684 -10.08412,0.79197 z"
   id="path2202" /><path
   style="fill:#6c63ff;stroke-width:0.41464335"
   inkscape:connector-curvature="0"
   d="m 268.76989,186.51175 a 5.9293999,5.9293999 0 0 1 -3.48301,-0.72148 6.9908869,6.9908869 0 0 0 -1.28125,-0.67172 c -0.82928,-0.26952 -1.7415,-0.0332 -2.61225,0.0954 a 10.200226,10.200226 0 0 1 -4.27497,-0.29025 c -1.45125,-0.41464 -2.90251,-1.16515 -4.39522,-0.82929 -0.70075,0.15342 -1.33515,0.53904 -2.04419,0.65099 a 5.4401208,5.4401208 0 0 1 -1.65858,-0.0871 l -4.72693,-0.73807 a 12.92858,12.92858 0 0 0 -3.24251,-0.2322 20.989246,20.989246 0 0 1 -2.48786,0.31098 c -0.8749,0 -1.73736,-0.33171 -2.61226,-0.27366 a 7.1152799,7.1152799 0 0 0 -1.51759,0.34415 23.35686,23.35686 0 0 1 -6.99503,0.93295 10.502916,10.502916 0 0 0 -5.26183,1.82443 0.8292867,0.8292867 0 0 0 -0.41464,0.57636 0.85001887,0.85001887 0 0 0 0.32757,0.5722 c 0.63026,0.63856 1.29783,1.29369 2.152,1.56736 a 13.03224,13.03224 0 0 0 1.60881,0.27366 c 1.30613,0.24049 2.51274,0.991 3.8396,0.991 0.91636,0 1.81614,-0.36489 2.72006,-0.23635 1.24393,0.17001 2.13541,1.17344 2.9025,2.152 a 7.5340697,7.5340697 0 0 1 1.43052,2.60396 c 0.29025,1.15271 0.10781,2.4464 0.72563,3.46227 a 2.3966386,2.3966386 0 0 1 0.35659,0.68416 2.2805384,2.2805384 0 0 1 -0.25293,1.12369 c -0.52245,1.59637 0.62197,3.28397 0.50172,4.97572 -0.058,0.80026 -0.41464,1.5632 -0.45196,2.36347 -0.0581,1.04075 0.36074,2.19761 -0.21976,3.06006 a 14.864964,14.864964 0 0 1 7.23552,-1.57979 9.0723965,9.0723965 0 0 1 1.24393,0.1161 17.415021,17.415021 0 0 1 2.35518,0.65514 c 1.73321,0.55147 3.64057,0.94539 5.3489,0.31513 0.41464,-1.00759 0.34415,-2.11883 0.21561,-3.1969 -0.12854,-1.07808 -0.39391,-2.13956 -0.55562,-3.21349 a 21.068029,21.068029 0 0 1 -0.21562,-2.60396 10.444866,10.444866 0 0 1 0.18245,-2.56664 12.165636,12.165636 0 0 1 0.77538,-2.15615 37.985477,37.985477 0 0 1 2.9025,-5.805 c 1.70004,-0.13684 3.34618,-0.28196 5.04621,-0.41465 a 7.8160271,7.8160271 0 0 0 1.20662,-0.16171 15.528393,15.528393 0 0 1 1.54247,-0.43952 2.0358988,2.0358988 0 0 0 0.57221,-0.1161 c 0.37318,-0.17 0.60538,-0.6427 1.01173,-0.65514 a 1.9446773,1.9446773 0 0 0 0.4644,0 c 0.18244,-0.0539 0.26952,-0.25708 0.41464,-0.41464 0.25708,-0.2861 0.67587,-0.34415 1.01173,-0.5266 a 1.4595446,1.4595446 0 0 0 0.60953,-1.72077 z"
   id="path2204" /><path
   style="fill:#3f3d56;stroke-width:0.41464335"
   inkscape:connector-curvature="0"
   d="m 247.99211,178.72475 a 0.8292867,0.8292867 0 0 0 0.94124,0.0581 1.1692942,1.1692942 0 0 0 0.3483,-0.63855 14.682521,14.682521 0 0 0 0.36074,-1.57564 1.7290628,1.7290628 0 0 1 0.20732,-0.65929 c 0.30269,-0.4644 0.95783,-0.48928 1.46784,-0.70074 a 3.8147188,3.8147188 0 0 0 1.50515,-1.47613 l -0.2861,-0.0581 0.26952,-0.41465 a 0.48098629,0.48098629 0 0 1 -0.0746,-0.76709 1.530034,1.530034 0 0 0 -0.78782,-0.17829 c 0.0871,-0.15757 -0.0539,-0.3566 -0.22391,-0.41465 a 1.7705271,1.7705271 0 0 0 -0.53489,-0.029 2.6454246,2.6454246 0 0 1 -0.77124,-0.18245 c -1.76638,-0.60538 -3.68203,-1.14027 -5.48158,-0.63025 a 6.8167367,6.8167367 0 0 0 -2.19346,1.14856 2.8485998,2.8485998 0 0 0 -1.16515,3.73179 9.6528972,9.6528972 0 0 1 0.5805,2.09395 6.6674651,6.6674651 0 0 1 -0.22391,1.99858 6.5181935,6.5181935 0 0 0 1.51345,0.29439 2.1727312,2.1727312 0 0 0 1.45125,-0.41464 c 0.41465,-0.35659 0.64685,-0.90807 0.98685,-1.35588 a 1.405641,1.405641 0 0 1 1.19832,-0.63026 c 0.46026,0.0705 0.54319,0.53904 0.91222,0.80026 z"
   id="path2206" /><path
   style="fill:#3f3d56;stroke-width:0.41464335"
   inkscape:connector-curvature="0"
   d="m 236.00062,257.04259 h -4.85547 a 0.63440433,0.63440433 0 0 0 0,1.24393 h 0.97026 v 8.23896 h -16.61476 a 0.46025412,0.46025412 0 0 0 -0.36903,-0.22391 h -4.85132 a 0.63440433,0.63440433 0 0 0 0,1.24393 h 0.97026 v 8.46287 h -16.04255 a 0.51415775,0.51415775 0 0 0 -0.45611,-0.44781 h -4.84718 a 0.63025789,0.63025789 0 0 0 0,1.24393 h 0.48513 v 8.70751 h -16.30792 a 0.41464335,0.41464335 0 0 0 -0.19903,-0.0539 h -4.85133 a 0.63440433,0.63440433 0 0 0 0,1.24393 h 0.48514 v 8.29286 h -16.1006 a 0.46440055,0.46440055 0 0 0 -0.41465,-0.28195 h -4.85132 a 0.63440433,0.63440433 0 0 0 0,1.24393 h 0.48513 v 9.18435 h 109.6856 v -48.09863 z"
   id="path2208" /><path
   style="opacity:0.1;fill:#6c63ff;stroke-width:0.41464335"
   inkscape:connector-curvature="0"
   d="m 79.717397,97.943934 a 11.481474,11.481474 0 0 0 -1.621255,-1.733209 1.3932017,1.3932017 0 0 1 0.153418,-2.218342 c 0.199028,-0.12854 0.393911,-0.265372 0.588793,-0.414644 2.263953,-1.72077 3.408368,-4.030333 2.550057,-5.162309 -0.858312,-1.131977 -3.391783,-0.65099 -5.655736,1.069779 a 8.7075104,8.7075104 0 0 0 -0.750504,0.626112 1.3890552,1.3890552 0 0 1 -2.172731,-0.414643 11.726114,11.726114 0 0 0 -1.115391,-1.774674 c -2.015166,-2.653717 -4.718641,-3.993015 -6.041353,-2.989579 -1.322713,1.003437 -0.767091,3.972284 1.24393,6.634294 a 11.435864,11.435864 0 0 0 1.306126,1.451252 1.4014945,1.4014945 0 0 1 -0.306836,2.234927 v 0 c -2.48786,1.422227 -3.893501,3.565933 -3.188607,4.797422 0.704893,1.23149 3.283975,1.07807 5.751103,-0.340006 a 10.834631,10.834631 0 0 0 1.102951,-0.733918 1.4014945,1.4014945 0 0 1 2.114681,0.514158 10.888534,10.888534 0 0 0 1.24393,2.073216 c 2.011021,2.65372 4.718642,3.99302 6.041354,2.98958 1.322712,-1.00344 0.76709,-3.95155 -1.24393,-6.609416 z"
   id="path2210" /><path
   style="opacity:0.1;fill:#6c63ff;stroke-width:0.41464335"
   inkscape:connector-curvature="0"
   d="m 373.41757,169.59845 a 11.286592,11.286592 0 0 0 1.19003,-2.05248 1.3849088,1.3849088 0 0 1 2.16029,-0.49758 c 0.18245,0.14928 0.37318,0.2944 0.56806,0.43953 2.30542,1.65857 4.85133,2.07321 5.68062,0.93294 0.82928,-1.14027 -0.36489,-3.43324 -2.6703,-5.10011 q -0.41465,-0.2944 -0.82929,-0.53489 a 1.3890552,1.3890552 0 0 1 -0.22806,-2.20176 11.26586,11.26586 0 0 0 1.36833,-1.58393 c 1.95297,-2.69933 2.44225,-5.67647 1.0988,-6.6343 -1.34344,-0.95782 -4.02204,0.41465 -5.97501,3.13056 a 11.692942,11.692942 0 0 0 -1.00758,1.65857 1.4014945,1.4014945 0 0 1 -2.22664,0.36074 v 0 c -2.07321,-1.94467 -4.56107,-2.68274 -5.5189,-1.65857 -0.95783,1.02417 -0.0705,3.45398 2.00687,5.39036 a 10.00949,10.00949 0 0 0 1.02417,0.82929 1.4014945,1.4014945 0 0 1 0.12025,2.17273 11.133174,11.133174 0 0 0 -1.62955,1.82029 c -1.95297,2.69932 -2.44225,5.67646 -1.09466,6.63429 1.34759,0.95783 4.0096,-0.4022 5.96257,-3.10568 z"
   id="path2212" /><ellipse
   style="fill:#6c63ff;stroke-width:0.41464335"
   cx="375.54056"
   cy="306.87442"
   rx="14.014945"
   ry="2.6951818"
   id="ellipse2214" /><ellipse
   style="fill:#3f3d56;stroke-width:0.41464335"
   cx="375.30835"
   cy="305.73001"
   rx="1.6336948"
   ry="2.1354134"
   id="ellipse2216" /><ellipse
   style="fill:#3f3d56;stroke-width:0.41464335"
   cx="375.30835"
   cy="303.11777"
   rx="1.6336948"
   ry="2.1354134"
   id="ellipse2218" /><ellipse
   style="fill:#3f3d56;stroke-width:0.41464335"
   cx="375.30835"
   cy="300.50967"
   rx="1.6336948"
   ry="2.1354134"
   id="ellipse2220" /><ellipse
   style="fill:#3f3d56;stroke-width:0.41464335"
   cx="375.30835"
   cy="297.8974"
   rx="1.6336948"
   ry="2.1354134"
   id="ellipse2222" /><ellipse
   style="fill:#3f3d56;stroke-width:0.41464335"
   cx="375.30835"
   cy="295.28513"
   rx="1.6336948"
   ry="2.1354134"
   id="ellipse2224" /><ellipse
   style="fill:#3f3d56;stroke-width:0.41464335"
   cx="375.30835"
   cy="292.67703"
   rx="1.6336948"
   ry="2.1354134"
   id="ellipse2226" /><ellipse
   style="fill:#3f3d56;stroke-width:0.41464335"
   cx="375.30835"
   cy="290.06479"
   rx="1.6336948"
   ry="2.1354134"
   id="ellipse2228" /><path
   style="fill:#6c63ff;stroke-width:0.41464335"
   inkscape:connector-curvature="0"
   d="m 381.41604,272.1978 a 8.2679884,8.2679884 0 0 0 0.60538,-0.89563 l -4.28326,-0.70489 4.63571,0.0373 a 7.8118807,7.8118807 0 0 0 0.14927,-6.19478 l -6.21965,3.22593 5.73867,-4.21692 a 7.8160271,7.8160271 0 1 0 -12.912,8.74897 7.9984702,7.9984702 0 0 0 -0.89148,1.42637 l 5.56866,2.90251 -5.93769,-1.99029 a 7.8326129,7.8326129 0 0 0 1.24393,7.33919 7.8160271,7.8160271 0 1 0 12.29003,0 7.82432,7.82432 0 0 0 0,-9.66534 z"
   id="path2230" /><path
   style="opacity:0.1;stroke-width:0.41464335"
   inkscape:connector-curvature="0"
   d="m 367.455,277.0284 a 7.8077343,7.8077343 0 0 0 1.65858,4.83474 7.8160271,7.8160271 0 1 0 12.29003,0 C 382.46095,280.53213 367.455,276.1535 367.455,277.0284 Z"
   id="path2232" /><ellipse
   style="fill:#6c63ff;stroke-width:0.41464335"
   cx="120.12024"
   cy="307.51712"
   rx="6.3440433"
   ry="1.2190515"
   id="ellipse2234" /><ellipse
   style="fill:#3f3d56;stroke-width:0.41464335"
   cx="120.01658"
   cy="306.99881"
   rx="0.73806512"
   ry="0.96611899"
   id="ellipse2236" /><ellipse
   style="fill:#3f3d56;stroke-width:0.41464335"
   cx="120.01658"
   cy="305.81708"
   rx="0.73806512"
   ry="0.96611899"
   id="ellipse2238" /><ellipse
   style="fill:#3f3d56;stroke-width:0.41464335"
   cx="120.01658"
   cy="304.63535"
   rx="0.73806512"
   ry="0.96611899"
   id="ellipse2240" /><ellipse
   style="fill:#3f3d56;stroke-width:0.41464335"
   cx="120.01658"
   cy="303.45361"
   rx="0.73806512"
   ry="0.96611899"
   id="ellipse2242" /><ellipse
   style="fill:#3f3d56;stroke-width:0.41464335"
   cx="120.01658"
   cy="302.27188"
   rx="0.73806512"
   ry="0.96611899"
   id="ellipse2244" /><ellipse
   style="fill:#3f3d56;stroke-width:0.41464335"
   cx="120.01658"
   cy="301.09015"
   rx="0.73806512"
   ry="0.96611899"
   id="ellipse2246" /><ellipse
   style="fill:#3f3d56;stroke-width:0.41464335"
   cx="120.01658"
   cy="299.90842"
   rx="0.73806512"
   ry="0.96611899"
   id="ellipse2248" /><path
   style="fill:#6c63ff;stroke-width:0.41464335"
   inkscape:connector-curvature="0"
   d="m 122.77811,291.81872 a 3.3503183,3.3503183 0 0 0 0.27781,-0.41464 l -1.94053,-0.31927 h 2.09809 a 3.5410542,3.5410542 0 0 0 0.32343,-1.48028 3.4954434,3.4954434 0 0 0 -0.25708,-1.32271 l -2.81543,1.45954 2.59567,-1.90736 a 3.5369078,3.5369078 0 1 0 -5.84233,3.95985 3.5534935,3.5534935 0 0 0 -0.41464,0.64269 l 2.51688,1.31028 -2.68689,-0.90393 a 3.5410542,3.5410542 0 0 0 0.57221,3.31715 3.5410542,3.5410542 0 1 0 5.56037,0 3.5327613,3.5327613 0 0 0 0,-4.37449 z"
   id="path2250" /><path
   style="opacity:0.1;stroke-width:0.41464335"
   inkscape:connector-curvature="0"
   d="m 116.45894,294.0039 a 3.5369078,3.5369078 0 0 0 0.7588,2.18931 3.5410542,3.5410542 0 1 0 5.56037,0 c 0.47684,-0.58879 -6.31917,-2.58737 -6.31917,-2.18931 z"
   id="path2252" /><g
   id="g2671"
   transform="matrix(0.41464335,0,0,0.41464335,458.39022,262.69573)"><path
     id="path1679"
     d="m -242.8899,227.39095 h 0.1908 c 0.2798,8.52152 1.4881,16.22905 3.8157,18.36579 5.5454,5.08748 28.5407,-5.08748 26.9636,-11.24332 -0.318,-1.27187 -0.8522,-3.35774 -1.5263,-5.99051 6.2067,-0.77584 11.5104,-2.54374 13.6218,-6.18128 l 3.9937,12.31169 0.2797,0.87759 h 0.076 0.229 c 2.6328,24.95408 8.5978,76.77004 13.3674,83.71445 6.3592,9.19561 13.6725,49.04328 13.6725,49.04328 l 13.6726,81.74305 c 0,0 5.2655,47.05916 8.4197,52.14664 a 5.9141927,5.9141927 0 0 0 3.4596,1.79334 c -1.8442,5.51991 -4.4898,11.96829 -7.6312,15.56768 -6.3595,7.1479 -14.7282,21.45644 -22.0925,20.43895 -7.3641,-1.0175 -9.4627,14.30853 4.21,16.34352 7.5675,1.13196 19.6376,-0.24165 28.9095,-1.69158 0,4.0954 2.8491,8.80134 10.0096,9.8697 13.6727,2.04771 42.0735,-4.0827 42.0735,-4.0827 0,0 24.1655,-10.17496 25.2466,-17.37374 0.7631,-5.21466 -2.938,-26.14963 -4.9984,-37.12587 3.8155,-6.11769 -0.2543,-58.913 -0.2543,-58.913 l -7.3641,-101.15177 c 0,0 4.2098,-56.19119 0,-66.41701 -2.6328,-6.35935 -3.6122,-35.61235 -3.981,-56.5346 l 5.0874,0.33068 a 9.3863963,9.3863963 0 0 0 0.7886,-1.10652 l 1.2718,0.089 c 0,0 6.3594,-7.14791 1.0556,-18.39123 -3.9045,-8.35619 -3.1668,-46.07983 -2.5437,-64.86534 v 0 l 0.7505,-8.90309 a 2.5437389,2.5437389 0 0 0 0.6232,-0.96662 93.291622,93.291622 0 0 0 28.4007,-8.59784 28.820562,28.820562 0 0 0 7.4533,-4.52785 c 5.2656,-5.08748 2.0986,-35.76497 -8.4199,-81.74305 -10.5183,-45.97808 -19.981,-41.89539 -19.981,-41.89539 0,0 -25.2467,-2.04769 -36.8206,-17.37372 -11.574,-15.32603 -19.3452,-15.12252 -19.3452,-15.12252 v 0 c -0.2924,-2.00957 -0.496,-3.90465 -0.6358,-5.67254 0,-0.66138 -0.1016,-1.27188 -0.1395,-1.93324 a 33.628227,33.628227 0 0 0 8.7506,-13.26561 c 2.3656,-1.27187 5.2782,-1.69158 7.5421,-3.29414 a 8.979398,8.979398 0 0 0 1.5644,-1.44994 12.8586,12.8586 0 0 0 4.0573,-8.00005 32.712481,32.712481 0 0 0 -0.4707,-10.03505 c -0.8013,-4.88398 -1.984,-9.88243 -4.8331,-13.72346 -2.8489,-3.84105 -7.1097,-6.15587 -11.2178,-8.30532 q -16.6869,-8.76318 -33.4629,-17.34829 a 18.467544,18.467544 0 0 0 -7.1607,-2.54375 c -4.477,-0.25437 -8.4961,2.81083 -12.1082,5.72343 a 51.663336,51.663336 0 0 0 -4.1336,3.62482 23.211617,23.211617 0 0 0 -3.0397,3.26871 c -4.2226,5.65981 -6.016,16.31808 -4.159,23.38966 0.5851,2.23849 1.8442,2.88716 3.396,2.86171 a 32.788793,32.788793 0 0 0 -3.4978,14.7537 33.450166,33.450166 0 0 0 15.5296,28.09558 c 0,0.71225 0,1.41178 0.064,2.08587 a 74.646017,74.646017 0 0 1 -0.2544,7.82199 c 0,0 -27.9812,15.12253 -31.1227,22.27043 -3.1415,7.14792 -14.7282,12.26083 -14.7282,12.26083 0,0 -22.0925,11.24332 -22.0925,51.091 l -11.5739,56.19119 -2.0986,107.28218 c 0,0 1.45,-1.27187 3.8157,-3.07792 -0.076,0.71224 -0.1395,1.44993 -0.2036,2.20033 a 121.12012,121.12012 0 0 0 -0.3179,12.32441 z m 141.3047,277.66181 c -0.4324,1.64071 -1.0682,3.8156 -1.8695,6.35935 -0.3562,-2.11131 -0.7123,-4.19716 -1.0684,-6.18128 0.9156,-0.089 1.895,-0.14001 2.9379,-0.17807 z"
     inkscape:connector-curvature="0"
     style="fill:url(#d00641ca-2725-41c0-a5bc-b0023515ebdd);stroke-width:1.27186942" /><path
     id="path1681"
     d="m -139.7922,491.87619 c 0,0 -4.0571,18.2386 -10.1749,25.32293 -6.1176,7.0843 -14.1305,21.27837 -21.202,20.26088 -7.0717,-1.0175 -9.1193,14.18134 4.0573,16.20361 13.1766,2.02226 40.4581,-4.04455 40.4581,-4.04455 0,0 23.3007,-10.17495 24.3054,-17.22111 1.0049,-7.04616 -6.0796,-43.56153 -6.0796,-43.56153 z"
     inkscape:connector-curvature="0"
     style="fill:#53526b;stroke-width:1.27186942" /><path
     id="path1683"
     d="m -139.7922,491.87619 c 0,0 -4.0571,18.2386 -10.1749,25.32293 -6.1176,7.0843 -14.1305,21.27837 -21.202,20.26088 -7.0717,-1.0175 -9.1193,14.18134 4.0573,16.20361 13.1766,2.02226 40.4581,-4.04455 40.4581,-4.04455 0,0 23.3007,-10.17495 24.3054,-17.22111 1.0049,-7.04616 -6.0796,-43.56153 -6.0796,-43.56153 z"
     inkscape:connector-curvature="0"
     style="opacity:0.05;stroke-width:1.27186942" /><path
     id="path1685"
     d="m -102.3101,499.97801 c 0,0 -4.0573,18.2386 -10.1749,25.32291 -6.1178,7.08432 -14.1687,21.27837 -21.2276,20.26088 -7.0588,-1.0175 -9.1193,14.18134 4.0573,16.20361 13.1766,2.02228 40.5218,-4.05726 40.5218,-4.05726 0,0 23.3005,-10.17495 24.3054,-17.22111 1.0047,-7.04616 -6.0796,-43.56153 -6.0796,-43.56153 z"
     inkscape:connector-curvature="0"
     style="fill:#53526b;stroke-width:1.27186942" /><path
     id="path1687"
     d="m -194.4953,222.44338 c 0,0 8.1019,87.11033 14.1815,96.22964 6.0795,9.1193 13.1638,48.62356 13.1638,48.62356 l 13.1638,81.03081 c 0,0 5.0875,46.6013 8.1019,51.66333 3.0144,5.06204 40.6107,2.88714 40.6107,2.88714 l -23.3769,-268.28813 z"
     inkscape:connector-curvature="0"
     style="fill:#5f5d7e;stroke-width:1.27186942" /><path
     id="path1689"
     d="m -194.4953,222.44338 c 0,0 8.1019,87.11033 14.1815,96.22964 6.0795,9.1193 13.1638,48.62356 13.1638,48.62356 l 13.1638,81.03081 c 0,0 5.0875,46.6013 8.1019,51.66333 3.0144,5.06204 40.6107,2.88714 40.6107,2.88714 l -23.3769,-268.28813 z"
     inkscape:connector-curvature="0"
     style="opacity:0.05;stroke-width:1.27186942" /><path
     id="path1691"
     d="m -210.6988,180.8914 2.6455,8.40706 14.3085,45.41846 0.2799,0.86487 h 0.076 c 1.9205,0.43243 42.4677,9.75523 51.2183,12.61694 a 12.375289,12.375289 0 0 1 1.3863,0.52147 c 4.0573,2.02227 9.1192,74.95126 9.1192,74.95126 0,0 3.0397,68.88445 5.0875,73.94649 2.0478,5.06203 10.1749,109.38077 15.1989,106.35372 5.0239,-3.02704 41.5265,0 41.5265,0 4.0573,-4.05726 0,-58.74765 0,-58.74765 L -77.051,344.96256 c 0,0 4.0573,-55.70788 0,-65.84468 -4.0573,-10.1368 -4.0573,-77.99104 -4.0573,-77.99104 l -82.9132,-12.96034 -8.0126,-1.27187 z"
     inkscape:connector-curvature="0"
     style="fill:#5f5d7e;stroke-width:1.27186942" /><path
     id="path1693"
     d="m -208.0533,189.31118 14.3085,45.41845 0.3434,0.89031 c 1.9205,0.43244 42.4677,9.75524 51.2182,12.61695 h 0.8776 l -22.652,-60.05768 -0.6487,-1.72974 -7.3641,0.47059 z"
     inkscape:connector-curvature="0"
     style="opacity:0.02000002;stroke-width:1.27186942" /><path
     id="path1695"
     d="m -113.4516,-21.67924 c 0,0 -37.4821,40.52176 -60.7827,7.08431 l -22.2832,15.19885 4.0573,23.30065 -13.1766,176.24293 c 0,0 34.4422,-1.01749 58.7476,7.08432 a 37.698209,37.698209 0 0 0 39.5043,-9.11931 l -4.0064,-154.96457 9.1193,-47.60607 z"
     inkscape:connector-curvature="0"
     style="opacity:0.1;stroke-width:1.27186942" /><path
     id="path1697"
     d="m -113.4516,-24.71901 c 0,0 -37.4821,40.52176 -60.7827,7.08431 l -22.2832,15.19885 4.0573,23.30065 -13.1766,176.24294 c 0,0 34.4422,-1.0175 58.7476,7.08431 a 37.698209,37.698209 0 0 0 39.5043,-9.1193 l -4.0064,-154.96457 9.1193,-47.60608 z"
     inkscape:connector-curvature="0"
     style="fill:#53526b;stroke-width:1.27186942" /><g
     transform="matrix(1.2718694,0,0,1.2718694,-978.55182,-508.63988)"
     data-name="TESLA"
     id="b7475575-9269-4b4a-a721-bb0a166a2f3e"><g
       data-name="g8"
       id="5bdc843c-f8f1-42c9-9268-9744bdec504e"><polyline
         points="621.35 522.36 621.35 527.38 619.75 527.38 619.75 524.04 613.9 524.04 613.9 527.38 612.29 527.38 612.29 522.37 621.35 522.36"
         data-name="polyline10"
         id="6bc746a9-2d5c-4457-b327-3c896c91b9d0"
         style="fill:#e82127" /><path
         transform="translate(-43.2,-23.86)"
         d="m 663.12,544.6 h -6.18 a 2.28,2.28 0 0 1 -1.68,-1.66 h 9.53 a 2.29,2.29 0 0 1 -1.68,1.66"
         data-name="path12"
         id="d39c551f-7962-48ac-bd52-1b7ff04213b0"
         inkscape:connector-curvature="0"
         style="fill:#e82127" /></g><g
       data-name="g30"
       id="338417f9-9740-4f15-9fb5-4758cf3f6efe"><path
         transform="translate(-43.2,-23.86)"
         d="m 719,543 a 2.31,2.31 0 0 1 -1.67,1.65 h -2.6 l -0.13,0.05 v 6.56 H 713 v -6.56 l -0.15,-0.05 h -2.6 A 2.34,2.34 0 0 1 708.58,543 v 0 H 719 v 0"
         data-name="path32"
         id="a3b10f10-7568-4e16-9739-cab30d2da761"
         inkscape:connector-curvature="0"
         style="fill:#e82127" /></g></g><path
     id="path1705"
     d="m -191.4554,184.96138 c 0,0 0,26.34042 -6.0796,37.482 -6.0795,11.14157 -41.5265,5.08747 -41.5265,5.08747 l 7.0843,-37.48199 z"
     inkscape:connector-curvature="0"
     style="fill:#d6dbe6;stroke-width:1.27186942" /><path
     id="path1707"
     d="m -235.2077,245.75674 c 5.3418,5.08748 27.4851,-5.08748 25.9588,-11.14157 -1.0684,-4.2862 -4.8077,-19.62495 -6.9317,-28.32454 l -1.4754,-6.11769 c 0,0 -12.973,-4.05726 -17.5517,0 -1.6662,1.47537 -2.8364,7.28781 -3.3833,14.30853 -0.9411,12.19723 0.017,28.04472 3.3833,31.27527 z"
     inkscape:connector-curvature="0"
     style="fill:#fdc2cc;stroke-width:1.27186942" /><path
     id="path1709"
     d="m -186.4315,-6.49312 35.447,27.34519 c 0,0 52.668,-3.03977 39.5042,-28.36268 a 94.423586,94.423586 0 0 1 -10.1749,-35.79041 74.836796,74.836796 0 0 1 0,-13.85066 c 0,0 -48.6235,-44.51542 -42.5441,6.07954 a 114.7735,114.7735 0 0 1 0.8395,11.70119 c 0.725,37.97803 -23.0717,32.87783 -23.0717,32.87783 z"
     inkscape:connector-curvature="0"
     style="fill:#fdc2cc;stroke-width:1.27186942" /><path
     id="path1711"
     d="m -164.0976,-51.05943 a 114.7735,114.7735 0 0 1 0.8396,11.70121 33.195792,33.195792 0 0 0 18.4038,5.5199 c 9.0685,0 15.7458,-8.82676 21.7744,-14.69009 -0.674,-8.40706 1.5136,-8.61054 1.5136,-8.61054 0,0 -48.6109,-44.56631 -42.5314,6.07952 z"
     inkscape:connector-curvature="0"
     style="opacity:0.1;stroke-width:1.27186942" /><circle
     id="circle1713"
     r="33.424728"
     cy="-69.285309"
     cx="-144.85406"
     style="fill:#fdc2cc;stroke-width:1.27186942" /><path
     id="path1715"
     d="m -121.0575,-37.38684 c 0,0 5.5709,0.50877 16.7124,15.69487 11.1416,15.18613 35.447,17.22113 35.447,17.22113 0,0 9.1192,-4.05726 19.2434,41.52653 10.1241,45.5838 13.1638,75.96876 8.1018,81.0308 -5.062,5.06204 -25.323,12.17179 -35.4979,12.17179 0,0 -3.0397,63.80969 2.0223,74.95127 5.062,11.14157 -1.0174,18.2386 -1.0174,18.2386 l -44.5156,-3.03977 c 0,0 -15.1987,-19.24338 -18.2386,-52.66811 -3.0397,-33.42472 -13.1638,-128.64959 -8.1018,-139.79117 5.0621,-11.14157 27.3452,-39.50426 26.3404,-42.54403 -1.0047,-3.03977 -0.496,-22.79191 -0.496,-22.79191 z"
     inkscape:connector-curvature="0"
     style="opacity:0.1;stroke-width:1.27186942" /><path
     id="path1717"
     d="m -120.943,-37.69208 c 0,0 7.4914,-0.2035 18.6329,14.99535 11.1416,15.19883 35.4342,17.22111 35.4342,17.22111 0,0 9.1193,-4.05727 19.2434,41.52653 10.1242,45.5838 13.1639,75.96876 8.1019,81.0308 -5.0622,5.06204 -25.323,12.15908 -35.4471,12.15908 0,0 -3.0397,63.80968 2.0223,74.95126 5.0621,11.14158 -1.0175,18.23861 -1.0175,18.23861 l -44.5154,-3.03977 c 0,0 -15.1988,-19.24339 -18.2385,-52.66811 -3.0399,-33.42473 -13.1893,-128.63688 -8.1274,-139.72757 5.062,-11.09072 27.3453,-39.50427 26.3404,-42.54404 -1.0046,-3.03977 -2.4292,-22.14325 -2.4292,-22.14325 z"
     inkscape:connector-curvature="0"
     style="fill:#d6dbe6;stroke-width:1.27186942" /><path
     id="path1719"
     d="m -238.5783,214.46875 c 4.8459,-3.70114 13.9907,-9.4627 22.4104,-8.19083 l -1.4753,-6.1177 c 0,0 -12.973,-4.05726 -17.5518,0 -1.6916,1.47537 -2.8491,7.2751 -3.3833,14.30853 z"
     inkscape:connector-curvature="0"
     style="opacity:0.1;stroke-width:1.27186942" /><path
     id="path1721"
     d="m -163.5379,-31.3073 c 0,0 -25.8317,16.71237 -28.8714,23.8094 -3.0398,7.09703 -14.1814,12.15908 -14.1814,12.15908 0,0 -21.2657,11.14157 -21.2657,50.64584 l -11.1415,55.70788 50.6458,70.90672 c 0,0 6.0795,-70.90672 9.1194,-88.12783 3.0397,-17.22112 7.0843,-49.60291 7.0843,-49.60291 0,0 15.1988,-19.24338 13.1638,-24.30543 -2.035,-5.06203 -4.5533,-51.19275 -4.5533,-51.19275 z"
     inkscape:connector-curvature="0"
     style="opacity:0.1;stroke-width:1.27186942" /><path
     id="path1723"
     d="m -163.5379,-31.61254 c 0,0 -26.9381,14.99535 -29.9653,22.07965 -3.0269,7.08431 -14.1812,12.15907 -14.1812,12.15907 0,0 -21.2657,11.14158 -21.2657,50.64585 l -11.1415,55.70788 -2.0223,106.35372 c 0,0 18.2385,-17.22112 31.4024,-9.11931 13.1638,8.10181 21.2656,-26.34041 21.2656,-26.34041 0,0 6.0796,-70.90672 9.1193,-88.12784 3.0397,-17.22111 7.0843,-49.6029 7.0843,-49.6029 0,0 15.1988,-19.24339 13.1638,-24.30543 -2.0348,-5.06203 -3.4594,-49.45028 -3.4594,-49.45028 z"
     inkscape:connector-curvature="0"
     style="fill:#d6dbe6;stroke-width:1.27186942" /><path
     id="path1725"
     d="m -174.1962,-109.94697 a 33.068606,33.068606 0 0 1 5.9015,-5.82517 c 3.4849,-2.89986 7.3386,-5.9269 11.663,-5.67253 a 17.450049,17.450049 0 0 1 6.8936,2.46742 q 16.1528,8.50881 32.2165,17.19568 c 3.9555,2.13673 8.0381,4.40067 10.7981,8.2417 2.76,3.84105 3.8792,8.77591 4.6551,13.60902 a 33.361134,33.361134 0 0 1 0.4579,9.94601 12.477039,12.477039 0 0 1 -4.4007,8.35619 c -2.8871,2.09858 -6.8427,2.11129 -9.2593,4.85854 -1.399,1.58984 -2.0095,3.8156 -3.0016,5.74884 -0.992,1.93325 -2.7091,3.81562 -4.6677,3.47221 -1.9587,-0.3434 -3.1416,-2.41655 -3.4213,-4.51514 a 27.408786,27.408786 0 0 1 0.3687,-6.35934 c 0.3816,-3.81562 -0.1016,-7.86016 -2.3147,-10.69642 -1.5263,-1.93325 -3.7139,-3.10337 -5.1892,-5.08749 -3.5359,-4.78222 -1.9205,-12.7187 -5.7997,-17.2084 a 9.1956158,9.1956158 0 0 0 -8.9032,-2.54373 c -3.1415,0.66138 -6.0158,2.36568 -8.903,3.81562 a 66.13721,66.13721 0 0 1 -12.1974,4.70591 c -3.5356,0.96662 -7.6311,3.28142 -8.8394,-1.4245 -1.8442,-6.90626 -0.1274,-17.47548 3.9428,-23.08442 z"
     inkscape:connector-curvature="0"
     style="opacity:0.1;stroke-width:1.27186942" /><path
     id="path1727"
     d="m -173.1786,-110.95175 a 33.068606,33.068606 0 0 1 5.9013,-5.82517 c 3.4851,-2.89987 7.3388,-5.92691 11.6632,-5.67254 a 17.450049,17.450049 0 0 1 6.8935,2.46743 c 10.7601,5.67254 19.7013,0.30524 32.2164,17.19567 2.671,3.61212 8.0383,4.40067 10.7981,8.24173 2.7601,3.84103 3.8793,8.77588 4.6551,13.60899 a 33.361134,33.361134 0 0 1 0.4579,9.94603 12.477039,12.477039 0 0 1 -4.4007,8.35617 c -2.8871,2.09859 -6.8426,2.11131 -9.2591,4.85855 -1.3991,1.58983 -2.0095,3.81561 -3.0016,5.74884 -0.9922,1.93324 -2.7091,3.81562 -4.6678,3.47221 -1.9588,-0.34341 -3.1415,-2.41656 -3.4214,-4.51514 a 27.408786,27.408786 0 0 1 0.3689,-6.35935 c 0.3815,-3.8156 -0.1016,-7.86015 -2.3148,-10.69642 -1.5264,-1.93324 -3.714,-3.10335 -5.1893,-5.08748 -3.5358,-4.78222 -1.9205,-12.71868 -5.7997,-17.20838 a 9.1956158,9.1956158 0 0 0 -8.903,-2.54374 c -3.1416,0.66136 -6.016,2.36567 -8.9031,3.8156 a 66.13721,66.13721 0 0 1 -12.1973,4.70592 c -3.5358,0.96662 -7.6312,3.28143 -8.8394,-1.4245 -1.8569,-6.90624 -0.1274,-17.48819 3.9428,-23.08442 z"
     inkscape:connector-curvature="0"
     style="fill:#865a61;stroke-width:1.27186942" /><path
     id="path1729"
     d="m -81.8839,43.64397 c 0,0 13.5072,34.44223 3.3705,48.62357 l -22.2833,-5.08748 c 0,0 20.261,6.07954 17.2212,-6.07953 -3.0397,-12.15907 1.6916,-37.45656 1.6916,-37.45656 z"
     inkscape:connector-curvature="0"
     style="opacity:0.1;stroke-width:1.27186942" /><path
     id="path1731"
     d="m -74.5071,128.74476 c 0,0 -29.3801,2.02227 -37.4819,-4.05727 a 77.584034,77.584034 0 0 0 36.5663,15.19884 z"
     inkscape:connector-curvature="0"
     style="opacity:0.1;stroke-width:1.27186942" /><path
     id="path1733"
     d="m -201.0708,63.87942 c 0,0 -15.1989,46.60129 -14.1813,53.68561 1.0175,7.08431 3.0397,85.08806 3.0397,85.08806 l 3.0397,-1.0175 -1.0174,-85.08806 z"
     inkscape:connector-curvature="0"
     style="opacity:0.1;stroke-width:1.27186942" /><path
     sodipodi:nodetypes="cccccccccccc"
     id="path2628"
     d="m -58.6341,115.7844 -347.2203,-279.81127 c -4.0816,-4.07981 -9.6187,-6.36789 -15.3897,-6.35935 h -14.7537 c 0,0 -33.0506,10.56056 -32.598,32.59801 v 14.74097 c -0.01,5.77094 2.2796,11.30809 6.3594,15.38963 l 347.2203,279.81126 c 8.4579,8.52763 22.2451,8.52763 30.703,0 l 25.5899,-25.56457 c 8.5007,-8.49438 8.541,-22.26077 0.09,-30.80468 z"
     inkscape:connector-curvature="0"
     style="fill:#6c63ff;stroke-width:1.27186942" /><path
     id="path1739"
     d="m -94.2084,92.77629 c 0,0 -50.6838,-58.12443 -43.5615,-18.23861 5.0876,28.36269 24.3055,43.56153 33.4248,46.6013 9.1193,3.03977 10.1367,-28.36269 10.1367,-28.36269 z"
     inkscape:connector-curvature="0"
     style="fill:#fdc2cc;stroke-width:1.27186942" /><path
     id="path1741"
     d="m -82.0492,39.09068 c 0,0 1.0174,37.48199 6.0795,42.54403 5.062,5.06204 -3.0398,11.14158 -3.0398,11.14158 l -20.2609,-5.08748 c 0,0 5.0875,33.42473 -16.2035,29.38018 0,0 14.1813,13.16385 28.3627,15.19884 14.1812,2.035 13.1638,-3.03976 13.1638,-3.03976 l 21.2657,-25.32292 z"
     inkscape:connector-curvature="0"
     style="fill:#d6dbe6;stroke-width:1.27186942" /><polygon
     transform="matrix(1.2718694,0,0,1.2718694,-978.55182,-508.63988)"
     id="polygon1743"
     points="725.44,498.4 723.28,490.95 713.28,486.95 700.28,492.95 709.28,501.95 "
     style="fill:#d6dbe6" /><path
     id="path2630"
     d="m -600.19531,-561.11719 a 254.2599,254.2599 0 0 0 -254.25977,254.25977 254.2599,254.2599 0 0 0 254.25977,254.259764 254.2599,254.2599 0 0 0 254.26172,-254.259764 254.2599,254.2599 0 0 0 -254.26172,-254.25977 z m 0,60.16797 a 194.09154,194.09154 0 0 1 194.09179,194.0918 194.09154,194.09154 0 0 1 -194.09179,194.0918 194.09154,194.09154 0 0 1 -194.08985,-194.0918 194.09154,194.09154 0 0 1 194.08985,-194.0918 z"
     style="opacity:1;fill:#6c63ff;fill-opacity:1;stroke:none;stroke-width:2.07936502;stroke-linejoin:round;stroke-miterlimit:4;stroke-dasharray:none;stroke-dashoffset:0;stroke-opacity:1"
     inkscape:connector-curvature="0" /></g><rect
   style="fill:url(#linearGradient3054);stroke-width:0.2827861"
   y="354.63593"
   x="42.338886"
   width="275.48904"
   height="145.36409"
   id="rect2951" /><rect
   style="fill:#ffffff;stroke-width:0.27864066"
   x="46.506069"
   y="360.65656"
   width="266.69446"
   height="135.90742"
   id="rect2953" /><rect
   style="fill:#e0e0e0;stroke-width:0.3218759"
   x="62.843193"
   y="429.68118"
   width="134.76122"
   height="7.8699307"
   id="rect2985" /><rect
   style="fill:#e0e0e0;stroke-width:0.3218759"
   x="62.843193"
   y="446.8143"
   width="134.76122"
   height="7.8699307"
   id="rect2987" /><rect
   style="fill:url(#2e076d7a-ee6b-46b6-b939-69cbad87608e);stroke-width:0.43254212"
   x="58.904285"
   y="385.72595"
   width="143.59416"
   height="29.634562"
   id="rect2997" /><rect
   style="fill:#6c63ff;stroke-width:0.43254212"
   x="61.422108"
   y="388.96429"
   width="138.05327"
   height="22.689285"
   id="rect2999" /><rect
   style="opacity:0.2;stroke-width:0.43254212"
   x="61.422108"
   y="388.96429"
   width="138.05327"
   height="22.689285"
   id="rect3001" /><rect
   style="fill:url(#acad6429-7160-42af-9a00-db2d81d2388a);stroke-width:0.41464335"
   x="211.79948"
   y="389.91208"
   width="83.803566"
   height="63.896542"
   id="rect3003" /><rect
   style="fill:#6c63ff;stroke-width:0.41464335"
   x="215.04198"
   y="394.07925"
   width="77.787094"
   height="55.56221"
   id="rect3005" /><rect
   style="opacity:0.2;fill:#ffffff;stroke-width:0.41464335"
   x="215.04198"
   y="394.07925"
   width="77.787094"
   height="55.56221"
   id="rect3007" /><rect
   style="fill:#e0e0e0;stroke-width:0.3218759"
   x="62.843193"
   y="461.31851"
   width="134.76122"
   height="7.8699307"
   id="rect2985-7" /><rect
   style="fill:#e0e0e0;stroke-width:0.3218759"
   x="62.843193"
   y="478.4516"
   width="134.76122"
   height="7.8699307"
   id="rect2987-0" /><text
   xml:space="preserve"
   style="font-style:normal;font-weight:normal;font-size:16.58573341px;line-height:125%;font-family:sans-serif;text-align:center;letter-spacing:0px;word-spacing:0px;text-anchor:middle;fill:#e0e0e0;fill-opacity:1;stroke:none;stroke-width:0.41464335px;stroke-linecap:butt;stroke-linejoin:miter;stroke-opacity:1"
   x="179.41461"
   y="380.76562"
   id="text3124"><tspan
     sodipodi:role="line"
     id="tspan3122"
     x="179.41461"
     y="380.76562"
     style="stroke-width:0.41464335px">What's The WP Theme</tspan></text>
</svg>